<svg width="107" height="58" viewBox="0 0 107 58" fill="none" xmlns="http://www.w3.org/2000/svg">
<path d="M1 32.5L100 1M9.5 8.5L90 28M83 14L106 8.5L101.5 20L83 14Z" stroke="black"/>
<path d="M9.33887 48.001C8.55436 48.001 7.93424 48.263 7.47852 48.7871C7.02604 49.3079 6.7998 50.0225 6.7998 50.9307C6.7998 51.8649 7.0179 52.5876 7.4541 53.0986C7.89355 53.6064 8.51855 53.8604 9.3291 53.8604C9.82715 53.8604 10.3952 53.7708 11.0332 53.5918V54.3193C10.5384 54.5049 9.92806 54.5977 9.20215 54.5977C8.15072 54.5977 7.33854 54.2786 6.76562 53.6406C6.19596 53.0026 5.91113 52.096 5.91113 50.9209C5.91113 50.1852 6.04785 49.5407 6.32129 48.9873C6.59798 48.4339 6.99512 48.0075 7.5127 47.708C8.03353 47.4085 8.64551 47.2588 9.34863 47.2588C10.0973 47.2588 10.7516 47.3955 11.3115 47.6689L10.96 48.3818C10.4196 48.1279 9.87923 48.001 9.33887 48.001ZM21.5871 50.9209C21.5871 52.0635 21.2974 52.9619 20.718 53.6162C20.1418 54.2705 19.3394 54.5977 18.3107 54.5977C17.2593 54.5977 16.4471 54.277 15.8742 53.6357C15.3046 52.9912 15.0197 52.083 15.0197 50.9111C15.0197 49.749 15.3062 48.849 15.8791 48.2109C16.452 47.5697 17.2658 47.249 18.3205 47.249C19.3459 47.249 20.1467 47.5745 20.7229 48.2256C21.299 48.8766 21.5871 49.7751 21.5871 50.9209ZM15.8986 50.9209C15.8986 51.8877 16.1037 52.6217 16.5139 53.123C16.9273 53.6211 17.5262 53.8701 18.3107 53.8701C19.1018 53.8701 19.6991 53.6211 20.1027 53.123C20.5064 52.625 20.7082 51.891 20.7082 50.9209C20.7082 49.9606 20.5064 49.2331 20.1027 48.7383C19.7023 48.2402 19.1083 47.9912 18.3205 47.9912C17.5295 47.9912 16.9273 48.2419 16.5139 48.7432C16.1037 49.2412 15.8986 49.9671 15.8986 50.9209ZM29.143 54.5L26.7211 48.1719H26.682C26.7276 48.6732 26.7504 49.2689 26.7504 49.959V54.5H25.9838V47.3613H27.2338L29.4945 53.25H29.5336L31.8139 47.3613H33.0541V54.5H32.224V49.9004C32.224 49.373 32.2468 48.8001 32.2924 48.1816H32.2533L29.8119 54.5H29.143ZM38.6471 54.5H37.817V47.3613H41.7965V48.0986H38.6471V50.7109H41.6061V51.4482H38.6471V54.5ZM51.9793 50.9209C51.9793 52.0635 51.6896 52.9619 51.1102 53.6162C50.534 54.2705 49.7316 54.5977 48.7029 54.5977C47.6515 54.5977 46.8393 54.277 46.2664 53.6357C45.6967 52.9912 45.4119 52.083 45.4119 50.9111C45.4119 49.749 45.6984 48.849 46.2713 48.2109C46.8442 47.5697 47.658 47.249 48.7127 47.249C49.7381 47.249 50.5389 47.5745 51.115 48.2256C51.6912 48.8766 51.9793 49.7751 51.9793 50.9209ZM46.2908 50.9209C46.2908 51.8877 46.4959 52.6217 46.9061 53.123C47.3195 53.6211 47.9184 53.8701 48.7029 53.8701C49.4939 53.8701 50.0913 53.6211 50.4949 53.123C50.8986 52.625 51.1004 51.891 51.1004 50.9209C51.1004 49.9606 50.8986 49.2331 50.4949 48.7383C50.0945 48.2402 49.5005 47.9912 48.7127 47.9912C47.9217 47.9912 47.3195 48.2419 46.9061 48.7432C46.4959 49.2412 46.2908 49.9671 46.2908 50.9209ZM57.2061 51.5312V54.5H56.376V47.3613H58.334C59.2096 47.3613 59.8558 47.529 60.2725 47.8643C60.6924 48.1995 60.9023 48.7041 60.9023 49.3779C60.9023 50.3219 60.4238 50.96 59.4668 51.292L61.4053 54.5H60.4238L58.6953 51.5312H57.2061ZM57.2061 50.8184H58.3438C58.9297 50.8184 59.3594 50.7028 59.6328 50.4717C59.9062 50.2373 60.043 49.8874 60.043 49.4219C60.043 48.9499 59.903 48.6097 59.623 48.4014C59.3464 48.193 58.9004 48.0889 58.2852 48.0889H57.2061V50.8184ZM67.5549 54.5H66.7248V48.0986H64.4641V47.3613H69.8156V48.0986H67.5549V54.5Z" fill="black"/>
<path d="M77.7719 52.5615C77.7719 53.1963 77.5424 53.6943 77.0834 54.0557C76.6244 54.417 75.9913 54.5977 75.184 54.5977C74.3767 54.5977 73.7159 54.4723 73.2016 54.2217V53.1182C73.5271 53.2712 73.8721 53.3916 74.2367 53.4795C74.6046 53.5674 74.9464 53.6113 75.2621 53.6113C75.7243 53.6113 76.0645 53.5234 76.2826 53.3477C76.504 53.1719 76.6146 52.9359 76.6146 52.6396C76.6146 52.3727 76.5137 52.1465 76.3119 51.9609C76.1101 51.7754 75.6934 51.5557 75.0619 51.3018C74.4109 51.0381 73.9519 50.737 73.685 50.3984C73.418 50.0599 73.2846 49.653 73.2846 49.1777C73.2846 48.582 73.4962 48.1133 73.9193 47.7715C74.3425 47.4297 74.9105 47.2588 75.6234 47.2588C76.307 47.2588 76.9874 47.4085 77.6645 47.708L77.2934 48.6602C76.6586 48.3932 76.0922 48.2598 75.5941 48.2598C75.2165 48.2598 74.9301 48.3428 74.7348 48.5088C74.5395 48.6715 74.4418 48.888 74.4418 49.1582C74.4418 49.3438 74.4809 49.5033 74.559 49.6367C74.6371 49.7669 74.7657 49.8906 74.9447 50.0078C75.1238 50.125 75.446 50.2796 75.9115 50.4717C76.4356 50.6898 76.8197 50.8932 77.0639 51.082C77.308 51.2708 77.487 51.484 77.601 51.7217C77.7149 51.9593 77.7719 52.2393 77.7719 52.5615ZM86.3824 54.5L85.6695 52.5176H82.94L82.2418 54.5H81.0113L83.6822 47.332H84.9518L87.6227 54.5H86.3824ZM85.3619 51.5117L84.693 49.5684C84.6441 49.4382 84.5758 49.2331 84.4879 48.9531C84.4033 48.6732 84.3447 48.4681 84.3121 48.3379C84.2242 48.7383 84.0956 49.1761 83.9264 49.6514L83.2818 51.5117H85.3619ZM91.365 54.5V47.3613H92.532V54.5H91.365ZM97.2217 54.5V47.3613H98.3887V53.499H101.411V54.5H97.2217Z" fill="url(#paint0_linear_101_32)"/>
<defs>
<linearGradient id="paint0_linear_101_32" x1="53.5" y1="43.5" x2="53.5" y2="57.5" gradientUnits="userSpaceOnUse">
<stop stop-color="#2A95F8"/>
<stop offset="1" stop-color="#167BD9"/>
</linearGradient>
</defs>
</svg>
